<?xml version="1.0" standalone="no"?>
<svg xmlns="http://www.w3.org/2000/svg" viewBox="0 0 100.688 116.264" width="100.688" height="116.264"><polygon fill="#2a0ad0" points="100.688,29.066 100.688,87.198 50.344,116.264 0,87.198 0,29.066 50.344,0"></polygon><path fill="white" fill-rule="nonzero" d="M18.82 4.93L12.52 4.93L12.52 19.26L6.33 19.26L6.33 4.93L0 4.93L0 0L18.82 0L18.82 4.93Z" transform="translate(40.936, 23.5)"></path><g fill="white" color="white" transform="translate(28.344 50.763999999999996) scale(1)"><svg width="44.0" height="44.0" x="0.0" y="0.0" viewBox="0 0 44 44"><path fill="currentColor" fill-rule="evenodd" d="M21.973 29.756l14.787 8.535-9.168 5.28-5.605-3.224-5.563 3.225-9.182-5.281 14.73-8.535zm0-15.005L44 27.454v6.492l-3.52 2.07-18.506-10.675L3.525 36.016l-3.52-2.042v-6.52L21.973 14.75zM21.97 0l22.026 12.689v10.576L21.984 10.591 0 23.294V12.703L21.97 0z"></path></svg></g></svg>